<svg version="1" xmlns="http://www.w3.org/2000/svg" width="346.667" height="346.667" viewBox="0 0 260.000000 260.000000"><path d="M105.1 12.1c-39.5 8.3-73 36.8-87.5 74.5-5.2 13.4-7.6 26.8-7.6 41.8V141H0v42h21.5l2.4 4.3c3.8 6.7 10 15.8 14.9 21.5 2.5 2.9 4.3 5.4 4.1 5.6-.2.2-2.6.8-5.4 1.5-2.7.6-11.5 3.2-19.4 5.7l-14.4 4.5 6.9 5.1c3.8 2.7 7.7 5.6 8.8 6.3 1.8 1.3 1.8 1.6-.5 10.9-1.2 5.3-2.1 9.8-1.8 10 .3.3 6.5-1.5 14-3.8 13.8-4.5 29.6-8.3 45.3-11.1 8.5-1.4 9.2-1.4 14.2.5 21.6 8 57.2 8 78.8 0 5-1.9 5.7-1.9 14.2-.5 15.7 2.8 31.5 6.6 45.3 11.1 7.5 2.3 13.7 4.1 14 3.8.3-.2-.6-4.7-1.8-10-2.3-9.3-2.3-9.6-.5-10.9 1.1-.7 5-3.6 8.8-6.3l6.9-5.1-14.4-4.5c-7.9-2.5-16.6-5.1-19.4-5.7-2.7-.7-5.2-1.3-5.4-1.5-.2-.2 1.6-2.7 4.1-5.6 8.7-10.2 15.8-21.9 21.2-35.1l1.5-3.7H260v-3.4c0-2.1-.6-3.6-1.5-4-.8-.3-1.5-1.2-1.5-2.1 0-.9.7-1.8 1.5-2.1 1.2-.5 1.5-3.2 1.5-15.5V128h-10v-6.1c0-8.5-3.5-24.6-7.6-35.3-6.1-15.8-14.9-29.3-27.3-41.7-17.2-17.1-37.4-28.1-60.8-32.8-13.7-2.8-35.8-2.8-49.2 0zM129 25.6c1.8 1.8 2.2 12.1.6 14.3-8.9 11.5-14.4 12-12.4 1.2.5-3 2-7.6 3.4-10.3 1.3-2.6 2.4-5 2.4-5.3 0-1.4-7.8 3.9-9.2 6.2-1.2 2-1.6 2.2-2.1 1-.8-2.1 2.9-6.6 6.7-8.3 3.5-1.6 8.4-1.1 10.6 1.2zm8.6 8.7c1 .6 1 1.4-.2 4.2-1.8 4.5-1.8 5.9.2 5.1 1.4-.5 1.5-.4.4.9-1.7 2.1-4 1.9-4-.4 0-1 .7-3.6 1.5-5.7l1.6-3.9L135 37l-2.1 2.5 1.2-2.5c.9-1.8.9-2.5 0-2.8-.9-.3-.9-.8.1-1.9 1-1.2 1.3-1.3 1.7-.2.2.8 1 1.7 1.7 2.2zm9-.6c-1 1-1.9-.5-1-1.8.6-1.1.8-1.1 1.2 0 .2.7.1 1.5-.2 1.8zm19.1 4.2c-2.9 2.8-5.4 5.7-5.4 6.5 0 1.9.2 1.9 2.8.6 1-.6 1.9-1.6 1.9-2.2 0-.7-.5-.6-1.5.2-.9.7-1.8 1-2.2.7-.3-.4.6-1.2 2.1-1.8 1.4-.7 2.9-1 3.2-.6 1.1 1.1-1.7 4.7-4.1 5.3-2.4.6-3.2 2.3-1.8 3.7.3.4 1.8 0 3.2-.9l2.6-1.5-2.4 2.1c-3 2.6-5.6 2.2-5.5-.8.1-2-.1-2.1-1.7-.6-1.6 1.4-1.8 1.4-2.1-.3-.5-2.3 11.8-15.3 14.5-15.3 1.3 0 .3 1.4-3.6 4.9zM145 35.7c-.1.5-.7 1.9-1.5 3.3-1.6 2.8-1.9 6-.6 6 .5 0 2.2-2 3.8-4.5 1.5-2.5 3.4-4.5 4.2-4.5 1.1 0 1.1.3.1 1.5-.7.9-1 1.8-.7 2.1.3.4-.5 2.1-1.8 3.8-1.8 2.4-3.1 3.1-5.7 3.1-4 0-4.4-2.2-1.4-7.7 1.9-3.5 3.7-4.9 3.6-3.1zm36.4 4.7c2.3 3.1 3 3.5 5.8 2.9 2.2-.4 2.9-.3 2.4.5-.4.7-1.4 1.2-2.2 1.2-.9 0-1.4.5-1.2 1.1.4 1.3.5 1.3 4.1.4 4.7-1.2 5.7 1.2 1.1 2.4-2.2.6-5.2 2-6.9 3.1l-3 2.1 3.8-.7c2-.3 3.7-.3 3.7.1s-1.7 2.3-3.7 4c-4.7 4.1-3.9 5.3 1.6 2.6 5.9-3.1 8.1-2.8 8.1.9 0 1.8-.5 3-1.3 3s-2.2.9-3.2 2c-2.5 2.7-.4 2.7 6.4-.1 4.9-2.1 5.1-2.3 3.5-4-1-1.1-1.2-1.9-.7-1.9.6 0 1.6.7 2.4 1.6.9 1.1 2.2 1.4 4.5.9 3.6-.6 5.6.9 2.3 1.8-1.7.5-1.9.9-1 2.6 1.8 3.3 1.2 3.6-1.6.9l-2.8-2.6-5.2 2.3c-5.7 2.6-6.6 4.1-3 4.8 1.2.3.6.4-1.3.4-2.7-.2-3.5-.6-3.4-2 .1-1.1-.5-1.7-1.8-1.7-1.5 0-1.9-.5-1.5-2 .4-1.6 0-2-1.9-2-1.3 0-2.4-.5-2.4-1 0-.6-.7-1-1.5-1-2.4 0-1.7-2.9 1.3-5.7l2.7-2.6-2.5.8c-1.4.4-3.7 1.6-5.2 2.7-2.4 1.6-2.8 1.7-2.8.4 0-.9-.9-1.6-2-1.6s-2-.6-2-1.4c0-1.5 6.5-7.7 10-9.6 2.2-1.2 2.2-1.2-1.6-5.1-2.1-2.1-4.5-3.9-5.4-3.9-1.3 0-1.3-.2-.1-.9 2-1.3 4.2 0 7.5 4.3zM73.8 38.6c.3 2.3-1.8 3.7-4.3 2.8-1.6-.6-2-3.5-.8-4.8 1.4-1.4 4.8-.1 5.1 2zm80.7 2.6c-1.8 3.1-2.1 4.6-1.3 5.5.8 1 .5 1.3-1.1 1.3-2.5 0-2.6-1.1-.6-5 1.1-2.1 1.2-3 .4-3-.8 0-.8-.4.1-1.5.7-.8 2.1-1.5 3.1-1.5 1.6 0 1.6.3-.6 4.2zm-71-1.3c.7 1.2-1.2 2.4-2.5 1.6-1.1-.7-.4-2.5 1-2.5.5 0 1.1.4 1.5.9zm48.6 3.2c-.9 2.2-1 2.2-1 .3-.1-1.1.2-2.4.6-2.7 1.2-1.2 1.4 0 .4 2.4zm-67.4 4.5c.8 2-.8 3.6-2.6 2.5-1.5-1-.8-4.1.9-4.1.6 0 1.3.7 1.7 1.6zm26 0c.8 2-.8 3.6-2.6 2.5-1.5-1-.8-4.1.9-4.1.6 0 1.3.7 1.7 1.6zm-15.6.7c-.1 1.2-1.5.9-1.9-.4-.3-.6.1-1 .8-.8.6.3 1.1.8 1.1 1.2zm1.7 10.5c.4 2.8-2.4 4-4.5 1.9s-.9-4.9 1.9-4.5c1.5.2 2.4 1.1 2.6 2.6zm9.9.8c-.9.9-2.8-.6-2.1-1.8.4-.6 1-.6 1.7.1.6.6.8 1.3.4 1.7zM65 60c0 .5-.4 1-1 1-.5 0-1-.5-1-1 0-.6.5-1 1-1 .6 0 1 .4 1 1zm91.5 1.4c0 2.2-1.4 2.9-3.4 1.7-1.9-1.2-.6-4.3 1.6-3.9 1 .2 1.8 1.2 1.8 2.2zm-18.5.7c.9 1.5.8 2.4-.1 3.5-2.8 3.3-8 .3-5.9-3.5.6-1.2 1.9-2.1 3-2.1s2.4.9 3 2.1zm-21.4 8c1 1.7-1.3 3.6-2.7 2.2-1.2-1.2-.4-3.3 1.1-3.3.5 0 1.2.5 1.6 1.1zm60 2c1 1.7-1.3 3.6-2.7 2.2-1.2-1.2-.4-3.3 1.1-3.3.5 0 1.2.5 1.6 1.1zm42.2 1.4c-.8.8-21 5.6-21.5 5.1-.4-.4 3.7-2 11.2-4.5 3.2-1 11.2-1.5 10.3-.6zm-118.3 6.9c0 2.2-1.4 2.9-3.4 1.7-1.9-1.2-.6-4.3 1.6-3.9 1 .2 1.8 1.2 1.8 2.2zm46 .1c1.4 1.3 2.5 2.9 2.5 3.6 0 .6.8.2 1.8-1 4.1-5.1 13.3-4 15.5 1.8.6 1.8 2.1 3.2 3.4 3.6 5.3 1.3 8 7.5 5.3 12.5-.7 1.3-.7 2.1 0 2.5 1.7 1.1 1.1 5.4-1 6.7-1.3.9-2 2.4-2 4.5v3.3h5.8c3.2 0 7.4.8 9.6 1.8 3.7 1.7 4.4 1.7 14.4 0 6.5-1.1 11.1-1.4 12.1-.8 1.5.8 6.6 6.1 13.2 13.9 3.1 3.6 5.9 4.1 5.9 1.1 0-1.6.7-2 3-2h3v34h-3c-2 0-3-.5-3-1.5 0-2.1-.9-1.9-9.1 2-8.4 3.9-18.7 5.9-25.9 4.9-4.1-.5-5.1-.4-5.6 1-1 2.7-8.8 6.6-14.3 7.3-4.9.6-5.1.7-5.1 3.7 0 1.7-.3 5.4-.6 8.2-.6 4.6-.4 5.2 1.5 5.7 1.7.4 2.1 1.3 2.1 4.7v4.2l-4.7-.6c-2.7-.3-18.6-.9-35.5-1.2l-30.8-.6v-3c0-2 .6-3.1 1.8-3.4 1.6-.5 1.7-3.3 1.6-43.1l-.1-42.6-2.6-1.4c-3.4-1.7-4.7-4.2-4.7-9.1 0-5.5 3.1-9.2 7.6-9.2 2.9 0 3.4-.3 3.4-2.3 0-3 1.8-4.7 5-4.7 1.7 0 2.9-.8 3.5-2.3 1.2-2.8 5.7-3.4 9-1.3 2.3 1.5 2.6 1.4 4.9-.9 3.4-3.4 8.8-3.4 12.1 0zM196 79c0 .5-.7 1-1.6 1-.8 0-1.2-.5-.9-1 .3-.6 1-1 1.6-1 .5 0 .9.4.9 1zM80.8 84.8c.9.7 1.2 4.6 1 16.3-.3 14.6-.4 15.4-2.3 15.4s-2-.8-2.3-15c-.3-17.7 0-18.9 3.6-16.7zm108.9 11.3c1.6 1.6.5 3.9-1.8 3.9-1.2 0-1.9-.7-1.9-1.8 0-3.1 1.7-4.1 3.7-2.1zM95 99.5c0 .8-.7 1.5-1.5 1.5s-1.5-.7-1.5-1.5.7-1.5 1.5-1.5 1.5.7 1.5 1.5zm-13.5 25c0 2.3-.4 3-2 3-2.1 0-3.1-2.5-2.1-5.1 1.1-2.8 4.1-1.2 4.1 2.1zm-13 8.5c8 1.2 11.5 3 11.5 5.9 0 .8 1.4 2.9 3.1 4.7 3.5 3.6 3.3 4.9-.8 5.7-3.8.7-7.1-.8-9-4.1-1.5-2.7-1.9-2.8-5-1.9-1.8.6-3.3 1.5-3.3 2.1 0 4.3-2.4 8.9-5.6 10.8l-3.4 2V183.9l-3.8-1.3c-2.1-.8-6.3-2.6-9.2-4.1-4.8-2.5-5.5-2.6-6.5-1.1-.7.9-2.2 1.6-3.4 1.6-2.1 0-2.1-.3-2.1-17v-17h2.4c1.5 0 2.6.7 2.9 2 .8 3.1 3.3 2.4 6.9-2.1 9.5-11.8 12.3-14.2 15.8-13.4.8.2 5.1.9 9.5 1.5zm31.6 11c1.1.6 1.9 2.1 1.9 3.5 0 3-2.6 4.5-7.9 4.5-6.1 0-9.7-5.4-5.3-7.9 2.2-1.4 8.8-1.4 11.3-.1zm4.5 11.6c1.2 1.8 1.1 2.3-.7 4.3-1.7 1.8-3 2.1-6.7 1.9-3.8-.2-4.9-.8-6.1-3-2.3-4-.4-5.6 6.6-5.4 4.4.1 5.8.5 6.9 2.2zm146.8 3.9c.7 1.9-2.1 4.6-3.9 3.9-1.8-.7-2-5.1-.2-5.7 1.7-.6 3.4.2 4.1 1.8zm-146.9 5.9c1.2 1.6 1.1 2.1-.4 3.7-4 4.3-14.1 2.9-14.1-1.9 0-2.9 1.6-3.7 7.5-3.7 4.4 0 6 .5 7 1.9zm-93 8.1c0 2.1-3.1 3.3-4.6 1.8-.5-.5-.7-1.7-.3-2.7.9-2.4 4.9-1.7 4.9.9zm12 0c0 2.2-3.1 3.3-4.7 1.7-1.7-1.7-.1-4.4 2.4-4 1.5.2 2.3 1 2.3 2.3zm78.4 1.4c2.4 4.3-7.7 7.2-11.3 3.2-2.9-3.2-1.1-5.1 5-5.1 4.2 0 5.5.4 6.3 1.9zm27.5 39.7c.3.9.6 4.7.6 8.5 0 8.4-1.2 8.9-6.7 2.4-2-2.5-4.1-4.5-4.6-4.5-.6 0-.7 2-.4 4.5.6 4 .5 4.5-1.3 4.5s-2-.7-2-8c0-7 .2-8 1.8-8 .9.1 3.3 2.1 5.2 4.6l3.5 4.4.3-3.7c.1-2.1.5-4.4.7-5.1.6-1.7 2.2-1.5 2.9.4zm17.7.5c1.6.8 1.8 1.3.9 2.4-.9 1.1-1.6 1.1-2.9.3-2.8-1.7-7-.2-7.7 2.9-1 3.9.7 5.8 5.4 5.8 4.5 0 6.4 1.1 4.2 2.5-2.3 1.5-8.3 1.2-10.7-.5-3-2.1-3.8-6.6-1.9-10.3.9-1.7 2.1-3.2 2.8-3.5 2.3-.9 7.9-.7 9.9.4zm13.2-.5c2.3.4 3.7 1.2 3.7 2.1 0 1.1-.7 1.3-2.4.9-2.3-.6-2.4-.3-3.1 6.3-.6 5.7-1 6.8-2.3 6.4-1.4-.3-1.6-1.5-1.4-6.8.4-6.4.3-6.5-2.2-6.5-1.6 0-2.6-.6-2.6-1.5 0-1.6 3.7-1.9 10.3-.9zm-60.1 2.1c2 1.8 2.3 4.5.7 7.5-.8 1.4-.8 2.3 0 3.1 1.5 1.5 1.4 3.7-.2 3.7-.8 0-2.2-.9-3.2-2-2.4-2.7-5.9-2.7-5.2-.1.4 1.7-1.8 3.9-2.9 2.8-.7-.7-1.6-13.7-1.1-15.1.9-2.2 9.4-2.2 11.9.1zm9.8 4.7c0 3.5.3 7.1.6 8 .4 1.2 0 1.6-1.5 1.6-1.6 0-2.1-.6-2.1-2.8 0-1.5-.3-5.1-.6-8-.6-4.8-.5-5.2 1.5-5.2 1.9 0 2.1.5 2.1 6.4zm66.3-4.4c2.6 0 3.7.4 3.7 1.5s-1.2 1.5-4.5 1.5c-5.6 0-6.3 2.4-1 3.4 5.1 1 4.7 3.6-.5 2.9-3.6-.5-4-.3-4 1.6 0 1.7.6 2.1 3.3 2.1 3.7 0 6.2 1.3 5.4 2.8-.6.9-1.4.9-9-.3-3.8-.6-3.9-.6-3.3-4.6 1.9-12.9 1.7-12.1 4-11.5 1.1.3 3.8.6 5.9.6zm-93.8 2.2c.1.2.7 1.3 1.4 2.5 3 5.9-.5 10.9-8.7 12.2l-5.1.8-1-6.2c-1.8-10.1-1.7-10.3 3.2-10.7 3.6-.3 9.5.6 10.2 1.4zm109.7-.7c3.6.5 4.5 1.1 4.1 2.2-.4.9-1.5 1.3-2.9 1-1.9-.3-2.3.1-2.9 3.2-1.4 8.3-1.7 9.1-3.4 9.1-1.6 0-1.7-.6-.9-5.7 1-6.6.6-8.3-2.2-8.3-1.1 0-2-.4-2-.8 0-1.6 1.4-2.3 3.5-1.8 1.1.2 4.1.8 6.7 1.1z"/><path d="M124 27.7c-.7 1.6-2.1 5.2-3.1 8.1-1.7 5-1.7 5.4-.1 4.7.9-.4 2.9-1.1 4.3-1.7 4.1-1.4 5.4-9.1 2.1-12.2-1.8-1.5-1.9-1.5-3.2 1.1zM121.6 42.6c-2.5 1.7-3.5 2.9-2.8 3.6 1.3 1.3 4.8-.6 6.3-3.3 1.6-3.1.7-3.1-3.5-.3zM179.2 49.6c-4.7 3.1-6.8 6.4-4.2 6.4 1.3 0 11-7.2 11-8.2 0-1.9-2.1-1.4-6.8 1.8zM188.3 61.2c-1.3.6-2.3 1.5-2.3 2 0 1.2 5.2-.2 7-1.8 1.2-1.2 1.2-1.4-.5-1.3-1.1 0-3 .5-4.2 1.1zM116.5 123.9l-3 .6-.2 36.8-.2 36.7h55.2l-.7-3.8c-.3-2-.6-4.5-.6-5.5 0-1.6-1.7-1.7-22-1.7h-22v-14.5c0-12.2-.2-14.5-1.5-14.5-.8 0-1.5-.7-1.5-1.5s.7-1.5 1.5-1.5c1.3 0 1.5-2.2 1.5-13.8 0-7.5-.3-14.7-.6-16-.7-2.3-1-2.4-5.9-1.3zm3.8 14.2c-1.7 1.7-3.7.1-2.2-1.7.8-1 1.5-1.2 2.3-.4.7.7.7 1.3-.1 2.1zm.7 37.4c0 .8-.7 1.5-1.5 1.5s-1.5-.7-1.5-1.5.7-1.5 1.5-1.5 1.5.7 1.5 1.5zM173 149v23.2l3.8-.7c2-.4 4.2-1 4.7-1.5.6-.4 4.7-1 9.2-1.2 6.1-.2 8.7-.8 10-2 .9-1 1.4-2 1-2.4-.3-.3-1.3.1-2.2 1-1.3 1.2-3.6 1.6-9.9 1.6-7 0-8.6-.3-10.1-2-1.5-1.6-1.5-2.2-.5-3.5.9-1.1 3.3-1.5 9.5-1.5 9.2 0 11.5-.5 11.5-2.6 0-1.2-.5-1.1-2.5.2-3.7 2.4-17.9 1.4-20.7-1.4-1.6-1.6-1.8-2.3-.9-4.1 1.1-1.9 2-2.1 11.2-2.1 10.4 0 13.9-.9 13.9-3.7 0-1.4-.4-1.3-2 .5-1.8 1.9-3.1 2.2-11 2.2-7.7 0-9.3-.3-11-2-2.5-2.5-2.5-3.2-.1-5.4 1.5-1.3 3.8-1.6 12.9-1.5 9.3.1 11.5-.2 13.5-1.7 2.1-1.6 2.2-2.2 1.3-4.6-.6-1.6-2.2-3.2-4-3.8-3.6-1.3-3.6-1.3-3.6.3 0 2.7-4.8 6-8.5 5.9-2.1-.1-3.3.3-3 .8 1.7 2.7 10.8-.4 12-4.1.4-1.3 1.2-1.8 2.2-1.5.8.3 1.9.6 2.4.6 1.6 0 .9 4.9-.8 5.8-2.5 1.3-17.9 1.5-20.2.3-4.1-2.3-2.4-8.1 2.4-8.1 4 0-1.1-3.2-5.9-3.7l-4.6-.6V149zM91.9 218.5c-1.2 1.2.4 5.5 2 5.5 4.6-.1 5.6-5.3 1.1-5.8-1.4-.2-2.8 0-3.1.3zM73.8 220.7c-2.9.7-1.8 10.3 1.1 10.3 2.8 0 6.1-3 6.1-5.5 0-2.1-3.4-5.7-5-5.4-.3.1-1.3.3-2.2.6z"/></svg>